<svg width="149" height="193" viewBox="0 0 149 193" fill="none" xmlns="http://www.w3.org/2000/svg">
<path d="M11.4675 10.9938L17.0118 20.5985L87.9943 20.6015L93.5329 11.01C67.2321 -4.17709 36.0185 -3.14876 11.4675 10.9938Z" fill="#FE841A"/>
<path d="M-1.02047 18.2188C-27.3228 33.4032 -42.039 60.949 -42.0669 89.282L-30.9619 89.2823L4.523 27.8213L-1.02047 18.2188Z" fill="#FE841A"/>
<path d="M-30.9621 103.71L-42.0532 103.71C-42.0547 134.081 -25.557 160.598 -1.03394 174.789L4.51707 165.175L-30.9621 103.71Z" fill="#FE841A"/>
<path d="M87.9884 172.402L17.0059 172.399L11.4673 181.991C37.7684 197.177 68.982 196.148 93.5326 182.006L87.9884 172.402Z" fill="#FE841A"/>
<path d="M135.962 103.717L100.478 165.178L106.021 174.781C132.323 159.597 147.039 132.051 147.067 103.718L135.962 103.717Z" fill="#FE841A"/>
<path d="M106.035 18.2114L100.483 27.8252L135.962 89.2893L147.054 89.2897C147.055 58.9197 130.558 32.4018 106.035 18.2114Z" fill="#FE841A"/>
<path d="M87.9946 20.6008C77.2164 15.5519 65.1893 12.7251 52.5 12.7251C39.8132 12.7251 27.7884 15.5504 17.0117 20.5978L52.5 82.072L87.9946 20.6008Z" fill="#FFE368"/>
<path d="M4.52281 27.8213C-15.2672 41.6721 -28.7916 63.8554 -30.9617 89.2824L40.0054 89.2858L4.52281 27.8213Z" fill="#FFE368"/>
<path d="M-30.9624 103.71C-28.7945 129.138 -15.2717 151.323 4.5168 165.175L40.0051 103.714L-30.9624 103.71Z" fill="#FFE368"/>
<path d="M17.0054 172.399C27.7836 177.448 39.8107 180.275 52.5 180.275C65.1868 180.275 77.2116 177.449 87.9883 172.402L52.5 110.928L17.0054 172.399Z" fill="#FFE368"/>
<path d="M135.962 103.717L64.9951 103.714L100.477 165.178C120.267 151.328 133.792 129.144 135.962 103.717Z" fill="#FFE368"/>
<path d="M135.963 89.2893C133.795 63.8619 120.272 41.6771 100.483 27.8252L64.9949 89.2859L135.963 89.2893Z" fill="#FFE368"/>
<path d="M52.5001 55.9611C54.2567 55.9611 55.6808 54.537 55.6808 52.7803C55.6808 51.0237 54.2567 49.5996 52.5001 49.5996C50.7434 49.5996 49.3193 51.0237 49.3193 52.7803C49.3193 54.537 50.7434 55.9611 52.5001 55.9611Z" fill="#AD4A38"/>
<path d="M11.4654 80.6823C13.2221 80.6823 14.6461 79.2582 14.6461 77.5015C14.6461 75.7449 13.2221 74.3208 11.4654 74.3208C9.70873 74.3208 8.28467 75.7449 8.28467 77.5015C8.28467 79.2582 9.70873 80.6823 11.4654 80.6823Z" fill="#AD4A38"/>
<path d="M16.3434 125.454C18.1004 125.454 19.5248 124.03 19.5248 122.273C19.5248 120.516 18.1004 119.091 16.3434 119.091C14.5863 119.091 13.1619 120.516 13.1619 122.273C13.1619 124.03 14.5863 125.454 16.3434 125.454Z" fill="#AD4A38"/>
<path d="M50.5916 140.219C52.3483 140.219 53.7724 138.795 53.7724 137.038C53.7724 135.281 52.3483 133.857 50.5916 133.857C48.835 133.857 47.4109 135.281 47.4109 137.038C47.4109 138.795 48.835 140.219 50.5916 140.219Z" fill="#AD4A38"/>
<path d="M87.9996 120.623C89.7562 120.623 91.1803 119.199 91.1803 117.442C91.1803 115.685 89.7562 114.261 87.9996 114.261C86.2429 114.261 84.8188 115.685 84.8188 117.442C84.8188 119.199 86.2429 120.623 87.9996 120.623Z" fill="#AD4A38"/>
<path d="M103.02 149.763C104.776 149.763 106.2 148.339 106.2 146.583C106.2 144.826 104.776 143.402 103.02 143.402C101.263 143.402 99.8389 144.826 99.8389 146.583C99.8389 148.339 101.263 149.763 103.02 149.763Z" fill="#AD4A38"/>
<path d="M103.02 49.3361C104.777 49.3361 106.201 47.9117 106.201 46.1546C106.201 44.3975 104.777 42.9731 103.02 42.9731C101.263 42.9731 99.8381 44.3975 99.8381 46.1546C99.8381 47.9117 101.263 49.3361 103.02 49.3361Z" fill="#AD4A38"/>
<path d="M52.5 41.0479C56.7828 41.0479 60.2547 37.576 60.2547 33.2933C60.2547 29.0105 56.7828 25.5386 52.5 25.5386C48.2173 25.5386 44.7454 29.0105 44.7454 33.2933C44.7454 37.576 48.2173 41.0479 52.5 41.0479Z" fill="#F63E31"/>
<path d="M-2.23971 72.649C2.04309 72.649 5.51498 69.1771 5.51498 64.8943C5.51498 60.6115 2.04309 57.1396 -2.23971 57.1396C-6.5225 57.1396 -9.99438 60.6115 -9.99438 64.8943C-9.99438 69.1771 -6.5225 72.649 -2.23971 72.649Z" fill="#F63E31"/>
<path d="M-2.23971 135.86C2.04309 135.86 5.51498 132.388 5.51498 128.105C5.51498 123.822 2.04309 120.351 -2.23971 120.351C-6.5225 120.351 -9.99438 123.822 -9.99438 128.105C-9.99438 132.388 -6.5225 135.86 -2.23971 135.86Z" fill="#F63E31"/>
<path d="M52.5 167.461C56.7828 167.461 60.2547 163.989 60.2547 159.706C60.2547 155.424 56.7828 151.952 52.5 151.952C48.2173 151.952 44.7454 155.424 44.7454 159.706C44.7454 163.989 48.2173 167.461 52.5 167.461Z" fill="#F63E31"/>
<path d="M107.24 135.86C111.523 135.86 114.995 132.388 114.995 128.105C114.995 123.822 111.523 120.351 107.24 120.351C102.957 120.351 99.4854 123.822 99.4854 128.105C99.4854 132.388 102.957 135.86 107.24 135.86Z" fill="#F63E31"/>
<path d="M107.24 72.649C111.523 72.649 114.995 69.1771 114.995 64.8943C114.995 60.6115 111.523 57.1396 107.24 57.1396C102.957 57.1396 99.4854 60.6115 99.4854 64.8943C99.4854 69.1771 102.957 72.649 107.24 72.649Z" fill="#F63E31"/>
</svg>
