<svg width="130" height="140" viewBox="0 0 130 140" fill="none" xmlns="http://www.w3.org/2000/svg">
<path d="M3.91811 131.482C5.77012 134.235 8.38293 136.391 11.4384 137.687C14.4938 138.983 17.8601 139.363 21.1274 138.78L135.243 117.318C142.702 115.905 149.395 111.834 154.079 105.861C158.763 99.8876 161.12 92.4182 160.712 84.839C159.357 67.5572 153.526 50.925 143.793 36.5776C134.061 22.2303 120.761 10.6617 105.202 3.00938C98.2975 -0.159671 90.4785 -0.719127 83.1938 1.43471C75.9091 3.58855 69.6527 8.30961 65.5841 14.7229L3.40968 112.963C1.70263 115.771 0.842575 119.012 0.932758 122.297C1.02294 125.582 2.05953 128.771 3.91811 131.482ZM99.8245 14.4362C113.364 21.0938 124.939 31.1585 133.411 43.6413C141.882 56.1241 146.96 70.5953 148.145 85.6329C148.343 89.4924 147.332 93.3175 145.253 96.5754C143.174 99.8334 140.131 102.362 136.547 103.809C139.504 84.9039 135.172 65.5801 124.426 49.7436C113.68 33.9072 97.3213 22.739 78.6563 18.4964C81.3236 15.7023 84.7962 13.8095 88.5905 13.0818C92.3848 12.354 96.3118 12.8275 99.8245 14.4362ZM71.0768 29.6297C109.276 37.5866 130.112 68.2926 123.4 106.725L18.9501 126.362C18.0795 126.517 17.1824 126.414 16.3699 126.065C15.5575 125.715 14.8655 125.135 14.3796 124.396C13.8728 123.701 13.5805 122.872 13.5387 122.013C13.4969 121.154 13.7075 120.301 14.1446 119.56L20.2337 109.943C53.525 129.019 82.9349 82.1247 51.6285 60.3565L71.0768 29.6297ZM44.8866 71.0024C48.4408 73.4567 50.9076 77.1904 51.7703 81.4217C52.633 85.6529 51.8248 90.0537 49.5149 93.7023C47.205 97.3509 43.5725 99.9644 39.3782 100.996C35.1839 102.027 30.753 101.395 27.0133 99.2341L44.8866 71.0024Z" fill="url(#paint0_linear_41_1576)" fill-opacity="0.75"/>
<path d="M99.8245 14.4362C113.364 21.0938 124.939 31.1585 133.411 43.6413C141.882 56.1241 146.96 70.5953 148.145 85.6329C148.343 89.4924 147.332 93.3175 145.253 96.5754C143.174 99.8334 140.131 102.362 136.547 103.809C139.504 84.9039 135.172 65.5801 124.426 49.7436C113.68 33.9072 97.3213 22.739 78.6563 18.4964C81.3236 15.7023 84.7962 13.8095 88.5905 13.0818C92.3848 12.354 96.3118 12.8275 99.8245 14.4362Z" fill="url(#paint1_linear_41_1576)" fill-opacity="0.75"/>
<defs>
<linearGradient id="paint0_linear_41_1576" x1="72.2487" y1="149.723" x2="100.688" y2="1.21999" gradientUnits="userSpaceOnUse">
<stop stop-color="#FF9966"/>
<stop offset="1" stop-color="#FF5E62"/>
<stop offset="1" stop-color="#FF5E62" stop-opacity="0"/>
</linearGradient>
<linearGradient id="paint1_linear_41_1576" x1="72.2487" y1="149.723" x2="100.688" y2="1.21999" gradientUnits="userSpaceOnUse">
<stop stop-color="#FF9966"/>
<stop offset="1" stop-color="#FF5E62"/>
<stop offset="1" stop-color="#FF5E62" stop-opacity="0"/>
</linearGradient>
</defs>
</svg>
