<svg width="32" height="33" viewBox="0 0 32 33" fill="none" xmlns="http://www.w3.org/2000/svg">
<path d="M10.8589 16.7137C10.8799 16.3714 10.9009 16.0287 10.9458 15.6825C11.0287 14.8616 11.207 14.0374 11.3892 13.2357C11.5 12.8357 11.6201 12.4407 11.7461 12.0545C11.9072 11.6775 12.0649 11.3026 12.2222 10.9364C12.5781 10.2215 12.9761 9.55356 13.4512 8.99445C13.564 8.85039 13.6758 8.71078 13.7852 8.57067C13.9102 8.44569 14.0352 8.32457 14.1558 8.20345C14.4102 7.97349 14.6308 7.72445 14.8848 7.5418C15.3911 7.16685 15.839 6.81039 16.295 6.58967C16.7345 6.3445 17.1113 6.13168 17.4512 6.01157C18.1172 5.74354 18.4952 5.6088 18.4952 5.6088C18.4952 5.6088 18.1728 5.86465 17.6094 6.2797C17.3184 6.46965 17.0098 6.76946 16.6426 7.07658C16.2597 7.3695 15.9131 7.78942 15.501 8.19185C15.2949 8.39744 15.1349 8.65573 14.94 8.89351C14.8452 9.01463 14.7481 9.13667 14.6479 9.26073C14.5669 9.39748 14.4829 9.53465 14.3979 9.67476C14.0342 10.2139 13.7622 10.8467 13.4789 11.4887C13.3627 11.8247 13.2451 12.1655 13.1249 12.5097C13.0429 12.8676 12.9521 13.2294 12.853 13.5898C12.704 14.3304 12.5581 15.0859 12.495 15.8627C12.4511 16.1444 12.4301 16.4286 12.4037 16.7147C18.5761 16.7157 23.3534 16.7196 30.0381 16.7196C30.0605 16.4266 30.0732 16.1297 30.0732 15.8314C30.0732 10.2016 25.9706 5.56484 20.6913 4.9506C21.0322 4.63179 21.248 4.1796 21.248 3.67664C21.2499 2.70989 20.4667 1.92763 19.5019 1.92763C18.5361 1.92763 17.752 2.70989 17.752 3.67664C17.752 4.18061 17.9668 4.63171 18.3086 4.9506C13.0297 5.56484 8.92822 10.2016 8.92822 15.8314C8.92822 16.1288 8.9389 16.4217 8.96092 16.7138C9.61282 16.7137 10.2422 16.7137 10.8589 16.7137Z" fill="black"/>
<path d="M32 17.365H7.00391V19.5701H32V17.365Z" fill="black"/>
<path d="M21.7382 21.1355C20.4678 21.7527 16.038 23.3503 16.038 23.3503L10.8017 23.0223C10.8017 23.0223 13.7969 22.1893 14.958 21.9285C16.1211 21.6687 15.6152 20.3573 14.9721 20.3573C14.3291 20.3573 8.7251 20.5887 8.7251 20.5887L5.00391 21.9285L5.98873 28.1619C5.98873 28.1619 6.75486 26.8504 7.51905 26.8504C8.2861 26.8504 14.9302 27.0272 15.832 26.8504C16.7344 26.6716 22.2305 22.9119 22.8887 22.4734C23.544 22.0369 23.0136 20.5174 21.7382 21.1355Z" fill="black"/>
<path d="M0 22.5985V30.6786L5.70118 29.6111L4.27492 21.8464L0 22.5985Z" fill="black"/>
</svg>
