<svg width="21" height="20" viewBox="0 0 21 20" fill="none" xmlns="http://www.w3.org/2000/svg">
<path d="M2.72016 4.08501C3.11753 3.83659 3.35658 3.70399 3.68016 3.36501C4.25899 2.75861 4.12251 2.1044 4.64016 1.44501C5.07035 0.897026 5.32599 0.533412 5.96016 0.245008C6.52125 -0.0101599 6.90394 -0.00922198 7.52016 0.00500846C8.55724 0.0289578 9.00372 0.888621 10.0402 0.845008C10.7219 0.816322 11.0593 0.534762 11.7202 0.365008C12.3257 0.209462 12.6564 -0.0371224 13.2802 0.00500846C13.9923 0.0531072 14.4082 0.272366 14.9602 0.725008C15.8358 1.44316 15.2892 2.64112 16.1602 3.36501C16.6762 3.79389 17.0002 3.84516 17.7202 4.08501C18.4402 4.32486 19.2802 4.80486 19.6402 5.40501C20.0002 6.00516 20.0138 6.56226 20.0002 7.32501C19.9809 8.40675 19.0438 8.88937 19.1602 9.96501C19.2128 10.4514 19.388 10.6939 19.5202 11.165C19.7289 11.9092 20.0722 12.3155 20.0002 13.085C19.9336 13.7957 19.7055 14.1918 19.2802 14.765C18.5665 15.7267 17.4065 15.4048 16.6402 16.325C16.2904 16.745 16.1971 17.0539 15.9202 17.525C15.5372 18.1764 15.5304 18.7092 14.9602 19.205C14.3558 19.7304 13.8361 19.837 13.0402 19.925C11.8309 20.0587 11.2502 18.9588 10.0402 19.085C9.50872 19.1404 8.72016 19.445 8.72016 19.445C8.01722 19.6325 7.64016 19.925 6.92016 19.925C6.20016 19.925 6.31712 19.8331 5.96016 19.685C5.49193 19.4908 5.24368 19.3183 4.88016 18.965C4.11233 18.2188 4.64866 17.098 3.80016 16.445C3.46799 16.1894 2.84016 15.965 2.84016 15.965C2.84016 15.965 1.65071 15.5168 1.04016 15.005C0.607686 14.6425 0.262015 14.4592 0.0801599 13.925C-0.0708623 13.4814 0.0284085 13.1908 0.0801599 12.725C0.178351 11.8413 0.741014 11.4522 0.80016 10.565C0.815746 10.3312 0.81216 10.199 0.80016 9.96501C0.758244 9.14766 0.501129 8.72318 0.32016 7.92501C0.224625 7.50365 0.0801599 7.27706 0.0801599 6.84501C0.0801599 6.41295 0.145739 6.16029 0.32016 5.76501C0.782023 4.71831 1.76016 4.68516 2.72016 4.08501Z" fill="url(#paint0_linear_2_2730)"/>
<path d="M6.92021 14.285C6.58884 14.6164 6.05158 14.6164 5.72021 14.285C5.38884 13.9536 5.38884 13.4164 5.72021 13.085L13.1602 5.64501C13.4916 5.31364 14.0288 5.31364 14.3602 5.64501C14.5698 5.85459 14.5698 6.39534 14.3602 6.60492C11.9602 9.00492 9.92021 11.285 6.92021 14.285Z" fill="white"/>
<path d="M7.76019 5.52506C7.39972 5.42207 7.16067 5.42207 6.80019 5.52506C6.16295 5.70713 5.78226 6.08782 5.60019 6.72506C5.4972 7.08554 5.4972 7.32458 5.60019 7.68506C5.78226 8.3223 6.16295 8.70299 6.80019 8.88506C7.16067 8.98805 7.39972 8.98805 7.76019 8.88506C8.39744 8.70299 8.77813 8.3223 8.96019 7.68506C9.06319 7.32458 9.06319 7.08554 8.96019 6.72506C8.77813 6.08782 8.39744 5.70713 7.76019 5.52506Z" fill="white"/>
<path d="M13.2802 11.0451C12.9197 10.9421 12.6807 10.9421 12.3202 11.0451C11.683 11.2271 11.3023 11.6078 11.1202 12.2451C11.0172 12.6055 11.0172 12.8446 11.1202 13.2051C11.3023 13.8423 11.683 14.223 12.3202 14.4051C12.6807 14.5081 12.9197 14.5081 13.2802 14.4051C13.9174 14.223 14.2981 13.8423 14.4802 13.2051C14.5832 12.8446 14.5832 12.6055 14.4802 12.2451C14.2981 11.6078 13.9174 11.2271 13.2802 11.0451Z" fill="white"/>
<defs>
<linearGradient id="paint0_linear_2_2730" x1="0" y1="9.96816" x2="20.0099" y2="9.96816" gradientUnits="userSpaceOnUse">
<stop stop-color="#FF9966"/>
<stop offset="1" stop-color="#FF5E62"/>
</linearGradient>
</defs>
</svg>
