<svg width="16" height="16" viewBox="0 0 16 16" fill="none" xmlns="http://www.w3.org/2000/svg">
<rect width="16" height="16" rx="8" fill="url(#paint0_linear_2_2719)"/>
<g clip-path="url(#clip0_2_2719)">
<path d="M6.93004 11C6.86148 10.9998 6.7937 10.9855 6.73091 10.958C6.66812 10.9304 6.61166 10.8903 6.56504 10.84L4.13504 8.25502C4.04421 8.15821 3.99555 8.02929 3.99976 7.89661C4.00398 7.76392 4.06074 7.63835 4.15754 7.54752C4.25435 7.45668 4.38327 7.40802 4.51595 7.41224C4.64863 7.41646 4.77421 7.47321 4.86504 7.57002L6.92504 9.76502L11.13 5.16502C11.1727 5.11188 11.2258 5.06802 11.286 5.03615C11.3463 5.00427 11.4124 4.98505 11.4803 4.97966C11.5483 4.97426 11.6166 4.98282 11.6811 5.00479C11.7456 5.02677 11.805 5.0617 11.8555 5.10744C11.906 5.15318 11.9466 5.20877 11.9749 5.27079C12.0032 5.33281 12.0184 5.39995 12.0198 5.46809C12.0212 5.53622 12.0086 5.60392 11.9828 5.66702C11.9571 5.73012 11.9187 5.78729 11.87 5.83502L7.30004 10.835C7.25386 10.8862 7.1976 10.9273 7.13479 10.9557C7.07198 10.9841 7.00397 10.9992 6.93504 11H6.93004Z" fill="white"/>
</g>
<defs>
<linearGradient id="paint0_linear_2_2719" x1="0" y1="8" x2="16" y2="8" gradientUnits="userSpaceOnUse">
<stop stop-color="#FF9966"/>
<stop offset="1" stop-color="#FF5E62"/>
</linearGradient>
<clipPath id="clip0_2_2719">
<rect width="12" height="12" fill="white" transform="translate(2 2)"/>
</clipPath>
</defs>
</svg>
