<svg width="32" height="29" viewBox="0 0 32 29" fill="none" xmlns="http://www.w3.org/2000/svg">
<path d="M10.1336 25.2364C10.1336 23.7431 8.96029 22.5697 7.46692 22.5697C5.97354 22.5697 4.80029 23.7431 4.80029 25.2364C4.80029 26.7297 5.97361 27.9031 7.46698 27.9031C8.96036 27.9031 10.1336 26.7298 10.1336 25.2364Z" fill="white"/>
<path d="M30.9335 25.2364C30.9335 23.7431 29.7602 22.5697 28.2668 22.5697C26.7735 22.5697 25.6001 23.743 25.6001 25.2364C25.6001 26.7297 26.7734 27.9031 28.2668 27.9031C29.7602 27.9031 30.9335 26.7298 30.9335 25.2364Z" fill="white"/>
<path d="M30.6669 20.0631C29.9735 19.2631 28.8535 18.8364 27.7335 18.8364H27.2002C26.8802 17.1831 25.7069 15.7964 24.1602 15.1564L24.0002 15.1031V9.23642H18.6669V9.76973C19.2535 9.76973 19.7335 10.2497 19.7335 10.8364C19.7335 11.4231 19.2535 11.9031 18.6669 11.9031V12.4364H21.8669V18.8364V23.1031H13.3335L14.0802 21.4498C14.2935 20.7565 14.4002 20.0631 14.4002 19.3698C14.4002 18.4631 13.7069 17.7698 12.8002 17.7698H2.66685C1.76017 17.7698 1.06685 18.4631 1.06685 19.3698V20.0098C1.06685 20.2765 1.22685 20.5431 1.44017 20.6498C2.13348 21.1298 2.34685 22.0365 1.92017 22.7831L1.22685 23.9564C0.906855 24.3831 1.01354 24.9697 1.49354 25.1831C1.65354 25.1831 1.76023 25.2364 1.86685 25.2364H3.20017C3.20017 22.8897 5.12017 20.9697 7.46686 20.9697C9.81354 20.9697 11.7335 22.8897 11.7335 25.2364H24.0002C24.0002 22.8897 25.9202 20.9697 28.2669 20.9697C30.1869 20.9697 30.7735 21.343 31.4669 22.0364C31.4669 21.2898 31.1469 20.6498 30.6669 20.0631Z" fill="white"/>
<path d="M3.09354 25.1298C2.61354 24.9165 2.50686 24.2765 2.82686 23.9031L3.52017 22.7298C3.94686 22.0365 3.73348 21.1298 3.04017 20.6498C2.82685 20.5431 2.66685 20.3298 2.66685 20.0098V19.3698C2.66685 18.4631 3.36017 17.7698 4.26686 17.7698H2.66685C1.76017 17.7698 1.06685 18.4631 1.06685 19.3698V20.0098C1.06685 20.2765 1.22685 20.5431 1.44017 20.6498C2.13348 21.1298 2.34685 22.0365 1.92017 22.7831L1.22685 23.9564C0.906855 24.3831 1.01354 24.9697 1.49354 25.1831C1.65354 25.1831 1.76023 25.2364 1.86685 25.2364H3.20023V25.1831C3.14692 25.1831 3.14692 25.1831 3.09354 25.1298Z" fill="white"/>
<path d="M26.1333 11.3698H25.0667L24 10.8364V8.70311L25.0667 8.1698H26.1333V11.3698Z" fill="#54C9FD"/>
<path d="M14.9334 3.3698C14.9334 1.87648 13.7601 0.70311 12.2667 0.70311C10.7733 0.70311 9.6001 1.87642 9.6001 3.3698C9.6001 4.86317 10.7734 6.03649 12.2668 6.03649C13.7602 6.03649 14.9334 4.86311 14.9334 3.3698Z" fill="white"/>
<path d="M17.92 15.5831C17.7067 14.9964 17.1733 14.5698 16.5333 14.5698H13.8666V11.9031H18.6133C19.1466 11.9031 19.6266 11.5298 19.7333 10.9964C19.84 10.3031 19.3066 9.76974 18.6666 9.76974H14.9333V7.90311C14.9333 6.8898 14.08 6.03642 13.0666 6.03642H12C10.9867 6.03642 10.1333 6.88974 10.1333 7.90311V15.9031C10.1333 16.9164 10.9866 17.7698 12 17.7698H16L17.6 23.1031H20.2667L17.92 15.5831Z" fill="white"/>
<path d="M0.533203 17.7698H7.99989V10.3031H0.533203V17.7698Z" fill="white"/>
<path d="M0.533203 17.7698H1.59989V10.3031H0.533203V17.7698Z" fill="white"/>
<path d="M3.2002 12.4364H5.33351V10.3031H3.2002V12.4364Z" fill="#54C9FD"/>
<path d="M7.46659 26.3031C6.8799 26.3031 6.3999 25.8231 6.3999 25.2364C6.3999 24.6497 6.8799 24.1697 7.46659 24.1697C8.05328 24.1697 8.53328 24.6497 8.53328 25.2364C8.53328 25.8231 8.05321 26.3031 7.46659 26.3031Z" fill="black"/>
<path d="M7.4666 28.4364C5.7066 28.4364 4.2666 26.9964 4.2666 25.2364C4.2666 23.4764 5.7066 22.0364 7.4666 22.0364C9.2266 22.0364 10.6666 23.4764 10.6666 25.2364C10.6666 26.9964 9.2266 28.4364 7.4666 28.4364ZM7.4666 23.1031C6.29329 23.1031 5.33329 24.0631 5.33329 25.2364C5.33329 26.4098 6.29329 27.3698 7.4666 27.3698C8.63991 27.3698 9.59991 26.4098 9.59991 25.2364C9.59991 24.0631 8.63991 23.1031 7.4666 23.1031Z" fill="black"/>
<path d="M28.2669 26.3031C27.6802 26.3031 27.2002 25.8231 27.2002 25.2364C27.2002 24.6497 27.6802 24.1697 28.2669 24.1697C28.8536 24.1697 29.3336 24.6497 29.3336 25.2364C29.3336 25.8231 28.8535 26.3031 28.2669 26.3031Z" fill="black"/>
<path d="M28.2669 28.4364C26.5069 28.4364 25.0669 26.9964 25.0669 25.2364C25.0669 23.4764 26.5069 22.0364 28.2669 22.0364C30.0269 22.0364 31.4669 23.4764 31.4669 25.2364C31.4669 26.9964 30.0269 28.4364 28.2669 28.4364ZM28.2669 23.1031C27.0936 23.1031 26.1336 24.0631 26.1336 25.2364C26.1336 26.4098 27.0936 27.3698 28.2669 27.3698C29.4402 27.3698 30.4002 26.4098 30.4002 25.2364C30.4002 24.0631 29.4402 23.1031 28.2669 23.1031Z" fill="black"/>
<path d="M8 18.3031H0.533312C0.213313 18.3031 0 18.0898 0 17.7698V10.3031C0 9.98312 0.213313 9.76981 0.533312 9.76981H8C8.32 9.76981 8.53331 9.98312 8.53331 10.3031V17.7698C8.53331 18.0898 8.32 18.3031 8 18.3031ZM1.06669 17.2364H7.46669V10.8364H1.06669V17.2364Z" fill="black"/>
<path d="M12.2669 6.5698C10.5069 6.5698 9.06689 5.1298 9.06689 3.3698C9.06689 1.6098 10.5069 0.1698 12.2669 0.1698C14.0269 0.1698 15.4669 1.6098 15.4669 3.3698C15.4669 5.1298 14.0269 6.5698 12.2669 6.5698ZM12.2669 1.23642C11.0936 1.23642 10.1336 2.19643 10.1336 3.36974C10.1336 4.54305 11.0936 5.50305 12.2669 5.50305C13.4402 5.50305 14.4002 4.54311 14.4002 3.3698C14.4002 2.19649 13.4402 1.23642 12.2669 1.23642Z" fill="black"/>
<path d="M26.1335 11.9031H25.0668C24.9601 11.9031 24.9068 11.9031 24.8535 11.8498L23.7868 11.3165C23.5735 11.2098 23.4668 11.0498 23.4668 10.8365V8.70311C23.4668 8.4898 23.5735 8.3298 23.7868 8.22311L24.8535 7.6898C24.9068 7.63649 24.9602 7.63649 25.0668 7.63649H26.1335C26.4535 7.63649 26.6668 7.8498 26.6668 8.1698V11.3698C26.6669 11.6898 26.4535 11.9031 26.1335 11.9031ZM25.1735 10.8364H25.6002V8.70311H25.1735L24.5335 9.02312V10.5164L25.1735 10.8364Z" fill="black"/>
<path d="M13.8666 12.4364C12.9599 12.4364 12.2666 11.7431 12.2666 10.8364V9.23642C12.2666 8.91642 12.4799 8.70311 12.7999 8.70311C13.1199 8.70311 13.3332 8.91642 13.3332 9.23642V10.8364C13.3332 11.1564 13.5465 11.3697 13.8665 11.3697C14.1865 11.3697 14.3999 11.583 14.3999 11.903C14.3999 12.2231 14.1866 12.4364 13.8666 12.4364Z" fill="black"/>
<path d="M20.2668 23.6364H17.6001C17.3868 23.6364 17.1734 23.4764 17.0668 23.2631L15.6268 18.3031H12.0001C10.6668 18.3031 9.6001 17.2364 9.6001 15.9031V7.90311C9.6001 6.5698 10.6668 5.50311 12.0001 5.50311H13.0668C14.4001 5.50311 15.4668 6.5698 15.4668 7.90311V9.23643H18.6668C19.1468 9.23643 19.5735 9.44974 19.8935 9.82311C20.2135 10.1964 20.3202 10.6764 20.2668 11.1031C20.1601 11.8498 19.4668 12.4364 18.6135 12.4364H14.4001V14.0364H16.5334C17.3867 14.0364 18.1867 14.5697 18.4001 15.4231L20.8001 22.9431C20.8534 23.1031 20.8001 23.2631 20.7468 23.4231C20.5868 23.5298 20.4268 23.6364 20.2668 23.6364ZM17.9734 22.5698H19.5201L17.3868 15.7431C17.2801 15.3698 16.9601 15.1031 16.5335 15.1031H13.8668C13.5468 15.1031 13.3335 14.8898 13.3335 14.5698V11.9031C13.3335 11.7431 13.3868 11.6364 13.4935 11.5298C13.6002 11.4231 13.7068 11.3698 13.8668 11.3698H18.6135C18.8802 11.3698 19.1468 11.1565 19.2002 10.9431C19.2002 10.7831 19.2002 10.6231 19.0935 10.5164C18.9868 10.3564 18.8268 10.3031 18.6668 10.3031H14.9335C14.6135 10.3031 14.4002 10.0898 14.4002 9.7698V7.90311C14.4002 7.15643 13.8135 6.5698 13.0668 6.5698H12.0001C11.2534 6.5698 10.6668 7.15649 10.6668 7.90311V15.9031C10.6668 16.6498 11.2535 17.2364 12.0001 17.2364H16.0001C16.2134 17.2364 16.4268 17.3964 16.5334 17.6097L17.9734 22.5698Z" fill="black"/>
<path d="M23.9999 25.7698H11.7332C11.4132 25.7698 11.1999 25.5565 11.1999 25.2365C11.1999 23.1565 9.54658 21.5032 7.46658 21.5032C5.38658 21.5032 3.73327 23.1565 3.73327 25.2365C3.73327 25.5565 3.51995 25.7698 3.19995 25.7698H1.86658C1.65327 25.7698 1.43989 25.7165 1.27989 25.6098C0.906578 25.4498 0.639891 25.0765 0.586578 24.7031C0.479891 24.3298 0.586578 23.9031 0.799891 23.6364L1.43989 22.5164C1.70658 22.0364 1.59989 21.4497 1.11989 21.1831C0.746578 20.8631 0.533203 20.4898 0.533203 20.0098V19.3698C0.533203 18.1965 1.4932 17.2365 2.66652 17.2365H12.7999C13.3866 17.2365 13.9199 17.4498 14.2932 17.8765C14.7199 18.3032 14.9332 18.8365 14.9332 19.3698C14.9332 20.1165 14.8265 20.8631 14.5599 21.6098L14.1332 22.5698H21.3332V12.9698H18.6665C18.3465 12.9698 18.1332 12.7565 18.1332 12.4365V11.9031C18.1332 11.5831 18.3465 11.3698 18.6665 11.3698C18.9865 11.3698 19.1998 11.1565 19.1998 10.8365C19.1998 10.5165 18.9865 10.3032 18.6665 10.3032C18.3465 10.3032 18.1332 10.0899 18.1332 9.76986V9.23654C18.1332 8.91654 18.3465 8.70323 18.6665 8.70323H23.9999C24.3199 8.70323 24.5332 8.91654 24.5332 9.23654V14.7299C26.0266 15.4231 27.1466 16.7031 27.6266 18.3031H27.7333C29.0666 18.3031 30.2933 18.8364 31.0933 19.7431C31.6799 20.4364 31.9999 21.1831 31.9999 22.0364C31.9999 22.2497 31.8932 22.4631 31.6799 22.5164C31.4666 22.6231 31.2532 22.5697 31.0932 22.4097C30.5065 21.823 30.0265 21.503 28.2665 21.503C26.1865 21.503 24.5332 23.1564 24.5332 25.2364C24.5332 25.5564 24.3199 25.7698 23.9999 25.7698ZM12.2132 24.7031H23.4665C23.7332 22.3031 25.7598 20.4364 28.2132 20.4364C29.2265 20.4364 29.9199 20.5431 30.4532 20.7564C30.3999 20.6497 30.2932 20.5431 30.1865 20.4364C29.5998 19.7431 28.6398 19.3697 27.6265 19.3697H27.0932C26.8265 19.3697 26.6132 19.2097 26.5599 18.943C26.2399 17.4497 25.2266 16.223 23.8399 15.6364L23.6799 15.583C23.5732 15.5297 23.4666 15.3164 23.4666 15.103V9.76973H19.8399C20.1066 10.0364 20.2666 10.4097 20.2666 10.8364C20.2666 11.2631 20.1066 11.6364 19.8399 11.9031H21.8666C22.1866 11.9031 22.3999 12.1164 22.3999 12.4364V23.1031C22.3999 23.4231 22.1866 23.6364 21.8666 23.6364H13.3332C13.1732 23.6364 12.9599 23.5297 12.9065 23.3697C12.8531 23.2097 12.7998 23.0497 12.8532 22.8897L13.5999 21.2364C13.8132 20.6497 13.8666 20.0097 13.8666 19.3697C13.8666 19.103 13.7599 18.8364 13.5466 18.623C13.3333 18.4097 13.0666 18.303 12.7999 18.303H2.66658C2.07989 18.303 1.59989 18.783 1.59989 19.3697V20.0097C1.59989 20.1164 1.70658 20.1697 1.75989 20.223C2.66658 20.8097 2.98658 22.0364 2.39989 22.9964L1.70658 24.1697L1.65327 24.223C1.59995 24.3297 1.59995 24.4363 1.59995 24.4897C1.59995 24.543 1.65327 24.6497 1.75995 24.703C1.81327 24.703 1.81327 24.703 1.86664 24.703H2.66664C2.93333 22.303 4.95995 20.4363 7.41333 20.4363C9.8667 20.4363 11.9466 22.3031 12.2132 24.7031Z" fill="black"/>
<path d="M5.33313 12.9698H3.19982C2.87982 12.9698 2.6665 12.7565 2.6665 12.4365V10.3031C2.6665 9.98312 2.87982 9.76981 3.19982 9.76981H5.33313C5.65313 9.76981 5.86644 9.98312 5.86644 10.3031V12.4364C5.8665 12.7564 5.65313 12.9698 5.33313 12.9698ZM3.73313 11.9031H4.79982V10.8364H3.73313V11.9031Z" fill="black"/>
</svg>
