<svg width="28" height="29" viewBox="0 0 28 29" fill="none" xmlns="http://www.w3.org/2000/svg">
<circle cx="14" cy="14.4697" r="14" fill="white"/>
<g clip-path="url(#clip0_76_1321)">
<path d="M11.2685 12.6167H9.05859V19.4108H11.2685V12.6167Z" fill="#FF5E62"/>
<path d="M17.2883 12.6964C17.2648 12.689 17.2426 12.6809 17.2179 12.6741C17.1882 12.6673 17.1586 12.6618 17.1283 12.6568C17.0109 12.6334 16.8825 12.6167 16.7318 12.6167C15.4434 12.6167 14.6262 13.5537 14.3569 13.9156V12.6167H12.147V19.4108H14.3569V15.7049C14.3569 15.7049 16.027 13.3789 16.7318 15.0873C16.7318 16.6123 16.7318 19.4108 16.7318 19.4108H18.9411V14.826C18.9411 13.7995 18.2376 12.9441 17.2883 12.6964Z" fill="#FF5E62"/>
<path d="M10.1395 11.6901C10.7364 11.6901 11.2204 11.2062 11.2204 10.6092C11.2204 10.0122 10.7364 9.52832 10.1395 9.52832C9.54252 9.52832 9.05859 10.0122 9.05859 10.6092C9.05859 11.2062 9.54252 11.6901 10.1395 11.6901Z" fill="#FF5E62"/>
</g>
<defs>
<clipPath id="clip0_76_1321">
<rect width="9.88235" height="9.88235" fill="white" transform="translate(9.05859 9.52832)"/>
</clipPath>
</defs>
</svg>
