<svg width="18" height="18" viewBox="0 0 18 18" fill="none" xmlns="http://www.w3.org/2000/svg">
<path d="M18 3.61656C18 3.34434 17.894 3.08844 17.7015 2.89599L17.3012 2.49563C17.1088 2.30315 16.8528 2.19716 16.5806 2.19716C16.3084 2.19716 16.0525 2.30315 15.86 2.49563L13.9737 4.38188V2.37174C13.9737 2.17374 13.8132 2.01318 13.6152 2.01318H0.358559C0.160524 2.01315 0 2.17374 0 2.37174V15.6283C0 15.8263 0.160524 15.9868 0.358559 15.9868H13.6151C13.8131 15.9868 13.9737 15.8263 13.9737 15.6283L13.9735 8.06524L17.7015 4.33723C17.894 4.14475 18 3.88877 18 3.61656ZM13.2566 15.2697H0.717119V2.73034H13.2565V5.09903L6.6919 11.6637C6.65252 11.703 6.62289 11.7511 6.60527 11.8038L5.93801 13.8056C5.89505 13.9344 5.92859 14.0765 6.02463 14.1725C6.09298 14.2409 6.18463 14.2775 6.27825 14.2775C6.31618 14.2775 6.35443 14.2715 6.39159 14.2591L8.39336 13.5919C8.44617 13.5743 8.49415 13.5447 8.53353 13.5053L13.2566 8.78225V15.2697ZM8.08624 12.9384L6.84508 13.352L7.2588 12.1109L14.8724 4.49733L15.6998 5.32477L8.08624 12.9384ZM17.1944 3.8301L16.2069 4.81767L15.7932 4.40395L15.3795 3.99023L16.3671 3.00266C16.4241 2.9456 16.4999 2.9142 16.5806 2.9142C16.6613 2.9142 16.7371 2.9456 16.7941 3.00262L17.1945 3.40298C17.1945 3.40302 17.1945 3.40302 17.1945 3.40302C17.2515 3.46008 17.2829 3.53587 17.2829 3.61652C17.2829 3.69724 17.2515 3.77307 17.1944 3.8301Z" fill="url(#paint0_linear_197_2113)"/>
<path d="M11.1841 4.25421H10.8422C10.6442 4.25421 10.4836 4.41477 10.4836 4.61277C10.4836 4.81077 10.6442 4.97133 10.8422 4.97133H11.1841C11.3821 4.97133 11.5426 4.81077 11.5426 4.61277C11.5427 4.41481 11.3821 4.25421 11.1841 4.25421Z" fill="url(#paint1_linear_197_2113)"/>
<path d="M9.28493 4.25421H2.75163C2.55359 4.25421 2.39307 4.41477 2.39307 4.61277C2.39307 4.81077 2.55359 4.97133 2.75163 4.97133H9.28497C9.48297 4.97133 9.64353 4.81077 9.64353 4.61277C9.6435 4.41481 9.48294 4.25421 9.28493 4.25421Z" fill="url(#paint2_linear_197_2113)"/>
<path d="M8.94308 6.34338H2.75163C2.55359 6.34338 2.39307 6.50394 2.39307 6.70194C2.39307 6.89994 2.55359 7.0605 2.75163 7.0605H8.94311C9.14111 7.0605 9.30167 6.89994 9.30167 6.70194C9.30167 6.50394 9.14108 6.34338 8.94308 6.34338Z" fill="url(#paint3_linear_197_2113)"/>
<path d="M6.702 8.43256H2.75163C2.55359 8.43256 2.39307 8.59312 2.39307 8.79112C2.39307 8.98912 2.55359 9.14967 2.75163 9.14967H6.70204C6.90007 9.14967 7.06059 8.98912 7.06059 8.79112C7.06059 8.59312 6.90004 8.43256 6.702 8.43256Z" fill="url(#paint4_linear_197_2113)"/>
<path d="M4.99274 10.4837H2.75163C2.55359 10.4837 2.39307 10.6443 2.39307 10.8423C2.39307 11.0403 2.55359 11.2008 2.75163 11.2008H4.9927C5.19074 11.2008 5.35126 11.0403 5.35126 10.8423C5.35126 10.6443 5.19077 10.4837 4.99274 10.4837Z" fill="url(#paint5_linear_197_2113)"/>
<defs>
<linearGradient id="paint0_linear_197_2113" x1="9" y1="2.01318" x2="9" y2="15.9868" gradientUnits="userSpaceOnUse">
<stop stop-color="#FF9966"/>
<stop offset="1" stop-color="#FF5E62"/>
</linearGradient>
<linearGradient id="paint1_linear_197_2113" x1="11.0131" y1="4.25421" x2="11.0131" y2="4.97133" gradientUnits="userSpaceOnUse">
<stop stop-color="#FF9966"/>
<stop offset="1" stop-color="#FF5E62"/>
</linearGradient>
<linearGradient id="paint2_linear_197_2113" x1="6.0183" y1="4.25421" x2="6.0183" y2="4.97133" gradientUnits="userSpaceOnUse">
<stop stop-color="#FF9966"/>
<stop offset="1" stop-color="#FF5E62"/>
</linearGradient>
<linearGradient id="paint3_linear_197_2113" x1="5.84737" y1="6.34338" x2="5.84737" y2="7.0605" gradientUnits="userSpaceOnUse">
<stop stop-color="#FF9966"/>
<stop offset="1" stop-color="#FF5E62"/>
</linearGradient>
<linearGradient id="paint4_linear_197_2113" x1="4.72683" y1="8.43256" x2="4.72683" y2="9.14967" gradientUnits="userSpaceOnUse">
<stop stop-color="#FF9966"/>
<stop offset="1" stop-color="#FF5E62"/>
</linearGradient>
<linearGradient id="paint5_linear_197_2113" x1="3.87216" y1="10.4837" x2="3.87216" y2="11.2008" gradientUnits="userSpaceOnUse">
<stop stop-color="#FF9966"/>
<stop offset="1" stop-color="#FF5E62"/>
</linearGradient>
</defs>
</svg>
