<svg width="28" height="28" viewBox="0 0 28 28" fill="none" xmlns="http://www.w3.org/2000/svg">
<circle cx="14" cy="14" r="14" fill="white"/>
<path d="M20.5294 11.0597C20.1007 11.2394 19.6438 11.3585 19.1675 11.4163C19.6575 11.1368 20.0315 10.6975 20.2073 10.168C19.7505 10.4283 19.246 10.6121 18.7085 10.7147C18.2747 10.2734 17.6564 10 16.982 10C15.6734 10 14.6199 11.0149 14.6199 12.2591C14.6199 12.4381 14.6357 12.6103 14.6746 12.7741C12.7096 12.6826 10.9708 11.7826 9.80274 10.4117C9.59881 10.7498 9.47919 11.1368 9.47919 11.5534C9.47919 12.3355 9.90074 13.0289 10.5291 13.4303C10.1493 13.4234 9.77679 13.3181 9.46118 13.1522C9.46118 13.159 9.46118 13.168 9.46118 13.1769C9.46118 14.2745 10.2805 15.1861 11.3549 15.3961C11.1625 15.4464 10.9528 15.4705 10.7352 15.4705C10.5839 15.4705 10.4311 15.4622 10.2877 15.4319C10.5939 16.3263 11.463 16.9839 12.4963 17.0052C11.6921 17.6063 10.671 17.9685 9.56566 17.9685C9.37182 17.9685 9.18591 17.9603 9 17.9375C10.047 18.5827 11.2879 18.9511 12.626 18.9511C16.9755 18.9511 19.3534 15.5083 19.3534 12.5242C19.3534 12.4244 19.3498 12.328 19.3448 12.2323C19.8139 11.9142 20.208 11.5169 20.5294 11.0597Z" fill="#FF5E62"/>
</svg>
