<svg width="136" height="193" viewBox="0 0 136 193" fill="none" xmlns="http://www.w3.org/2000/svg">
<path d="M55.4675 10.9938L61.0118 20.5985L131.994 20.6015L137.533 11.01C111.232 -4.17709 80.0185 -3.14876 55.4675 10.9938Z" fill="#FE841A"/>
<path d="M42.9794 18.2188C16.6771 33.4032 1.96088 60.949 1.93298 89.282L13.038 89.2823L48.5229 27.8213L42.9794 18.2188Z" fill="#FE841A"/>
<path d="M13.0376 103.71L1.94653 103.71C1.94503 134.081 18.4428 160.598 42.9658 174.789L48.5168 165.175L13.0376 103.71Z" fill="#FE841A"/>
<path d="M131.988 172.402L61.0057 172.399L55.4672 181.991C81.7683 197.177 112.982 196.148 137.533 182.006L131.988 172.402Z" fill="#FE841A"/>
<path d="M131.995 20.6008C121.217 15.5519 109.189 12.7251 96.5001 12.7251C83.8134 12.7251 71.7886 15.5504 61.0118 20.5978L96.5001 82.072L131.995 20.6008Z" fill="#FFE368"/>
<path d="M48.5229 27.8213C28.7329 41.6721 15.2086 63.8554 13.0385 89.2824L84.0055 89.2858L48.5229 27.8213Z" fill="#FFE368"/>
<path d="M13.0377 103.71C15.2056 129.138 28.7284 151.323 48.5169 165.175L84.0052 103.714L13.0377 103.71Z" fill="#FFE368"/>
<path d="M61.0054 172.399C71.7836 177.448 83.8107 180.275 96.5 180.275C109.187 180.275 121.212 177.449 131.988 172.402L96.5 110.928L61.0054 172.399Z" fill="#FFE368"/>
<path d="M179.962 103.717L108.995 103.714L144.477 165.178C164.267 151.328 177.792 129.144 179.962 103.717Z" fill="#FFE368"/>
<path d="M179.963 89.2893C177.795 63.8619 164.272 41.6771 144.483 27.8252L108.995 89.2859L179.963 89.2893Z" fill="#FFE368"/>
<path d="M96.5001 55.9611C98.2567 55.9611 99.6808 54.537 99.6808 52.7803C99.6808 51.0237 98.2567 49.5996 96.5001 49.5996C94.7434 49.5996 93.3193 51.0237 93.3193 52.7803C93.3193 54.537 94.7434 55.9611 96.5001 55.9611Z" fill="#AD4A38"/>
<path d="M27.6819 81.1061C29.4386 81.1061 30.8627 79.682 30.8627 77.9254C30.8627 76.1687 29.4386 74.7446 27.6819 74.7446C25.9253 74.7446 24.5012 76.1687 24.5012 77.9254C24.5012 79.682 25.9253 81.1061 27.6819 81.1061Z" fill="#AD4A38"/>
<path d="M55.4653 80.6823C57.2219 80.6823 58.646 79.2582 58.646 77.5015C58.646 75.7449 57.2219 74.3208 55.4653 74.3208C53.7086 74.3208 52.2845 75.7449 52.2845 77.5015C52.2845 79.2582 53.7086 80.6823 55.4653 80.6823Z" fill="#AD4A38"/>
<path d="M60.3435 125.454C62.1006 125.454 63.525 124.03 63.525 122.273C63.525 120.516 62.1006 119.091 60.3435 119.091C58.5864 119.091 57.162 120.516 57.162 122.273C57.162 124.03 58.5864 125.454 60.3435 125.454Z" fill="#AD4A38"/>
<path d="M94.5915 140.219C96.3482 140.219 97.7722 138.795 97.7722 137.038C97.7722 135.281 96.3482 133.857 94.5915 133.857C92.8348 133.857 91.4108 135.281 91.4108 137.038C91.4108 138.795 92.8348 140.219 94.5915 140.219Z" fill="#AD4A38"/>
<path d="M132 120.623C133.756 120.623 135.18 119.199 135.18 117.442C135.18 115.685 133.756 114.261 132 114.261C130.243 114.261 128.819 115.685 128.819 117.442C128.819 119.199 130.243 120.623 132 120.623Z" fill="#AD4A38"/>
<path d="M96.5 41.0479C100.783 41.0479 104.255 37.576 104.255 33.2933C104.255 29.0105 100.783 25.5386 96.5 25.5386C92.2173 25.5386 88.7454 29.0105 88.7454 33.2933C88.7454 37.576 92.2173 41.0479 96.5 41.0479Z" fill="#F63E31"/>
<path d="M41.7604 72.649C46.0432 72.649 49.5151 69.1771 49.5151 64.8943C49.5151 60.6115 46.0432 57.1396 41.7604 57.1396C37.4776 57.1396 34.0057 60.6115 34.0057 64.8943C34.0057 69.1771 37.4776 72.649 41.7604 72.649Z" fill="#F63E31"/>
<path d="M41.7604 135.86C46.0432 135.86 49.5151 132.388 49.5151 128.105C49.5151 123.822 46.0432 120.351 41.7604 120.351C37.4776 120.351 34.0057 123.822 34.0057 128.105C34.0057 132.388 37.4776 135.86 41.7604 135.86Z" fill="#F63E31"/>
<path d="M96.5 167.461C100.783 167.461 104.255 163.989 104.255 159.706C104.255 155.424 100.783 151.952 96.5 151.952C92.2173 151.952 88.7454 155.424 88.7454 159.706C88.7454 163.989 92.2173 167.461 96.5 167.461Z" fill="#F63E31"/>
</svg>
