<svg width="124" height="140" viewBox="0 0 124 140" fill="none" xmlns="http://www.w3.org/2000/svg">
<path d="M3.91811 131.482C5.77012 134.235 8.38293 136.391 11.4384 137.687C14.4938 138.983 17.8601 139.362 21.1274 138.78L135.243 117.318C142.702 115.905 149.395 111.834 154.079 105.86C158.763 99.8873 161.12 92.4179 160.712 84.8387C159.357 67.5569 153.526 50.9247 143.793 36.5774C134.061 22.23 120.761 10.6615 105.202 3.00914C98.2975 -0.159915 90.4785 -0.719371 83.1938 1.43447C75.9091 3.5883 69.6527 8.30936 65.5841 14.7227L3.40968 112.962C1.70263 115.77 0.842575 119.012 0.932758 122.297C1.02294 125.582 2.05953 128.771 3.91811 131.482ZM99.8245 14.436C113.364 21.0936 124.939 31.1583 133.411 43.6411C141.882 56.1238 146.96 70.5951 148.145 85.6327C148.343 89.4922 147.332 93.3172 145.253 96.5752C143.174 99.8332 140.131 102.362 136.547 103.809C139.504 84.9036 135.172 65.5799 124.426 49.7434C113.68 33.9069 97.3213 22.7388 78.6563 18.4962C81.3236 15.7021 84.7962 13.8093 88.5905 13.0815C92.3848 12.3537 96.3118 12.8272 99.8245 14.436ZM71.0768 29.6295C109.276 37.5864 130.112 68.2924 123.4 106.724L18.9501 126.362C18.0795 126.517 17.1824 126.414 16.3699 126.064C15.5575 125.715 14.8655 125.135 14.3796 124.396C13.8728 123.701 13.5805 122.872 13.5387 122.013C13.4969 121.153 13.7075 120.301 14.1446 119.559L20.2337 109.943C53.525 129.019 82.9349 82.1245 51.6285 60.3563L71.0768 29.6295ZM44.8866 71.0022C48.4408 73.4564 50.9076 77.1901 51.7703 81.4214C52.633 85.6527 51.8248 90.0534 49.5149 93.702C47.205 97.3506 43.5725 99.9642 39.3782 100.995C35.1839 102.026 30.753 101.395 27.0133 99.2339L44.8866 71.0022Z" fill="url(#paint0_linear_41_588)" fill-opacity="0.75"/>
<path d="M99.8245 14.436C113.364 21.0936 124.939 31.1583 133.411 43.6411C141.882 56.1238 146.96 70.5951 148.145 85.6327C148.343 89.4922 147.332 93.3172 145.253 96.5752C143.174 99.8332 140.131 102.362 136.547 103.809C139.504 84.9036 135.172 65.5799 124.426 49.7434C113.68 33.9069 97.3213 22.7388 78.6563 18.4962C81.3236 15.7021 84.7962 13.8093 88.5905 13.0815C92.3848 12.3537 96.3118 12.8272 99.8245 14.436Z" fill="url(#paint1_linear_41_588)" fill-opacity="0.75"/>
<defs>
<linearGradient id="paint0_linear_41_588" x1="72.2487" y1="149.722" x2="100.688" y2="1.21974" gradientUnits="userSpaceOnUse">
<stop stop-color="#FF9966"/>
<stop offset="1" stop-color="#FF5E62"/>
<stop offset="1" stop-color="#FF5E62" stop-opacity="0"/>
</linearGradient>
<linearGradient id="paint1_linear_41_588" x1="72.2487" y1="149.722" x2="100.688" y2="1.21974" gradientUnits="userSpaceOnUse">
<stop stop-color="#FF9966"/>
<stop offset="1" stop-color="#FF5E62"/>
<stop offset="1" stop-color="#FF5E62" stop-opacity="0"/>
</linearGradient>
</defs>
</svg>
