<svg width="101" height="152" viewBox="0 0 101 152" fill="none" xmlns="http://www.w3.org/2000/svg">
<path d="M95.1403 146.143C97.4963 143.806 99.1223 140.834 99.8203 137.589C100.518 134.345 100.258 130.967 99.0714 127.868L56.5286 19.8254C53.7373 12.7652 48.48 6.95773 41.7326 3.48101C34.9851 0.004296 27.2057 -0.905544 19.8384 0.920368C3.12001 5.50189 -12.1186 14.3568 -24.3793 26.6144C-36.6399 38.872 -45.5004 54.1103 -50.0896 70.8312C-51.9035 78.2082 -50.9823 85.993 -47.4967 92.7425C-44.0111 99.4921 -38.1976 104.749 -31.1335 107.538L77.0472 150.125C80.1263 151.274 83.4713 151.509 86.6807 150.802C89.8901 150.096 92.8275 148.478 95.1403 146.143ZM-37.8554 73.9631C-33.8633 59.4128 -26.1553 46.1518 -15.4888 35.4833C-4.8223 24.8148 8.43561 17.1059 22.9821 13.1141C26.7354 12.1936 30.6823 12.4668 34.2731 13.8956C37.8639 15.3245 40.9199 17.8378 43.0155 21.0857C23.8911 21.7372 5.72711 29.6267 -7.80546 43.1597C-21.338 56.6927 -29.2299 74.86 -29.8861 93.9899C-33.132 91.8957 -35.6442 88.8411 -37.0726 85.2514C-38.5011 81.6617 -38.7747 77.7157 -37.8554 73.9631ZM-17.5258 99.34C-16.8959 60.3263 9.34293 34.0861 48.3515 33.4496L87.2844 132.342C87.6008 133.168 87.668 134.068 87.4776 134.932C87.2873 135.796 86.8477 136.584 86.2134 137.2C85.6258 137.829 84.8671 138.272 84.0309 138.475C83.1947 138.677 82.3176 138.631 81.5074 138.341L70.9174 134.169C83.3911 97.8843 31.8018 77.8198 16.3105 112.662L-17.5258 99.34ZM28.0345 117.281C29.7765 113.328 32.9795 110.204 36.973 108.56C40.9666 106.917 45.4407 106.883 49.4587 108.466C53.4767 110.048 56.7268 113.124 58.5284 117.05C60.3301 120.975 60.5436 125.446 59.1242 129.525L28.0345 117.281Z" fill="url(#paint0_linear_41_587)" fill-opacity="0.75"/>
<path d="M-37.8554 73.9631C-33.8633 59.4128 -26.1553 46.1518 -15.4888 35.4833C-4.8223 24.8148 8.43561 17.1059 22.9821 13.1141C26.7354 12.1936 30.6823 12.4668 34.2731 13.8956C37.8639 15.3245 40.9199 17.8378 43.0155 21.0857C23.8911 21.7372 5.72711 29.6267 -7.80546 43.1597C-21.338 56.6927 -29.2299 74.86 -29.8861 93.9899C-33.132 91.8957 -35.6442 88.8411 -37.0726 85.2514C-38.5011 81.6617 -38.7747 77.7157 -37.8554 73.9631Z" fill="url(#paint1_linear_41_587)" fill-opacity="0.75"/>
<defs>
<linearGradient id="paint0_linear_41_587" x1="100.203" y1="75.6006" x2="-50.9982" y2="75.6006" gradientUnits="userSpaceOnUse">
<stop stop-color="#FF9966"/>
<stop offset="1" stop-color="#FF5E62"/>
<stop offset="1" stop-color="#FF5E62" stop-opacity="0"/>
</linearGradient>
<linearGradient id="paint1_linear_41_587" x1="100.203" y1="75.6006" x2="-50.9982" y2="75.6006" gradientUnits="userSpaceOnUse">
<stop stop-color="#FF9966"/>
<stop offset="1" stop-color="#FF5E62"/>
<stop offset="1" stop-color="#FF5E62" stop-opacity="0"/>
</linearGradient>
</defs>
</svg>
